<?xml version="1.0" standalone="no"?>
<!DOCTYPE svg PUBLIC "-//W3C//DTD SVG 1.1//EN" "http://www.w3.org/Graphics/SVG/1.1/DTD/svg11.dtd">
<svg xmlns="http://www.w3.org/2000/svg" id="logo-delphix-rev" viewBox="0 0 532.84 177.77" width="532.8400268554688" height="177.77000427246094">
      <g>
        <path d="M93.65,108.95c.23,6.47-3,12.58-8.4,16.06.36-6.68-2.93-13.3-9.1-16.87-6.19-3.58-13.61-3.09-19.22.6.33-6.41,4.04-12.26,9.8-15.29-4.48-8.47-4.72-18.97.24-27.97L6.67,100.29c-6.02,3.47-6.67,9.23-6.67,11.55s.65,8.07,6.67,11.55l28.98,16.73c-5.88-10.86-6.14-24.44.51-35.95,1.4-2.43,3.05-4.64,4.88-6.62-4.98,16.03,1.53,33.92,16.62,42.63,15.1,8.72,33.84,5.41,45.23-6.92-.8,2.57-1.89,5.1-3.29,7.53-6.64,11.51-18.54,18.08-30.88,18.42l28.98,16.73c6.02,3.47,11.33,1.16,13.33,0,2-1.16,6.67-4.6,6.67-11.55v-69.62c-5.31,8.77-14.48,13.81-24.04,14.19Z" fill="#00cfff"/>
        <path d="M84.46,93.74c10.85,6.27,24.05,4.75,33.23-2.78v-31.68c0-6.95-4.66-10.39-6.67-11.55-2-1.16-7.31-3.47-13.33,0l-27.44,15.84c-1.93,11.72,3.35,23.9,14.2,30.17ZM91.83,60.26c7.85-2.1,15.91,2.53,18,10.35,1.69,6.3-1.02,12.74-6.24,16.11.29-5.34-2.34-10.64-7.28-13.49-4.95-2.86-10.89-2.47-15.38.48.32-6.19,4.57-11.74,10.89-13.44Z" fill="#00cfff"/>
      </g>
      <g>
        <path d="M157.42,70.41h30.42c13.3,0,23.54,3.53,30.73,10.6,7.19,7.07,10.79,17.42,10.79,31.05s-3.72,23.38-11.16,30.48c-7.44,7.11-17.94,10.66-31.48,10.66h-29.3v-82.79ZM201.49,136.93c3.87-2.04,6.73-5.11,8.6-9.23,1.87-4.11,2.81-9.25,2.81-15.4v-.75c0-6.4-.89-11.66-2.68-15.77-1.79-4.12-4.53-7.17-8.23-9.17-3.7-2-8.46-2.99-14.28-2.99h-14.46v56.36h13.72c5.82,0,10.66-1.02,14.53-3.05Z" fill="#f6f9fd"/>
        <path d="M248,150.59c-4.45-2.41-7.9-5.9-10.35-10.47-2.45-4.57-3.68-9.89-3.68-15.96s1.27-11.43,3.8-16.08c2.53-4.65,6.03-8.29,10.47-10.91,4.45-2.62,9.5-3.93,15.15-3.93,8.89,0,15.85,2.72,20.88,8.17,5.03,5.45,7.54,12.86,7.54,22.26v5.11h-42.77c.5,4.32,2.06,7.65,4.68,9.97,2.62,2.33,6.05,3.49,10.29,3.49s7.23-.83,9.48-2.49c2.24-1.66,3.91-3.91,4.99-6.73l13.34,4.74c-2.24,5.07-5.65,9.08-10.22,12.03-4.57,2.95-10.47,4.43-17.71,4.43-6.15,0-11.45-1.2-15.9-3.62ZM272.5,108.44c-2.24-2.16-5.4-3.24-9.48-3.24-3.74,0-6.88,1.14-9.41,3.43-2.54,2.29-4.14,5.47-4.8,9.54h27.43c-.25-4.32-1.5-7.56-3.74-9.73Z" fill="#f6f9fd"/>
        <path d="M299.18,69.29h15.46v83.91h-15.46v-83.91Z" fill="#f6f9fd"/>
        <path d="M325.24,94.35h15.09v7.61c1.99-2.83,4.55-5.01,7.67-6.55,3.12-1.54,6.59-2.31,10.41-2.31,4.99,0,9.48,1.23,13.47,3.68,3.99,2.45,7.11,5.94,9.35,10.47,2.24,4.53,3.37,9.87,3.37,16.02v.12c0,6.23-1.12,11.7-3.37,16.4-2.24,4.7-5.38,8.31-9.41,10.85-4.03,2.54-8.54,3.8-13.53,3.8-3.66,0-7.04-.77-10.16-2.31-3.12-1.54-5.72-3.68-7.79-6.42v30.67h-15.09v-82.04ZM364.52,137.12c2.66-3.16,3.99-7.56,3.99-13.22v-.87c0-5.65-1.29-9.95-3.87-12.91-2.58-2.95-6.07-4.43-10.47-4.43s-8.02,1.62-10.6,4.86c-2.58,3.24-3.87,7.52-3.87,12.84v1.25c0,5.24,1.27,9.41,3.8,12.53,2.53,3.12,6.09,4.68,10.66,4.68,4.24,0,7.69-1.58,10.35-4.74Z" fill="#f6f9fd"/>
        <path d="M392.2,69.29h14.96v35.54c3.07-7.73,8.81-11.6,17.21-11.6,6.48,0,11.51,2.1,15.09,6.3,3.57,4.2,5.36,10.29,5.36,18.27v35.41h-15.34v-34.41c0-4.16-.85-7.29-2.56-9.41-1.7-2.12-4.34-3.18-7.92-3.18s-6.65,1.48-8.73,4.43c-2.08,2.95-3.12,7.17-3.12,12.66v29.92h-14.96v-83.91Z" fill="#f6f9fd"/>
        <path d="M454.17,70.66h15.96v15.09h-15.96v-15.09ZM454.29,94.35h15.46v58.85h-15.46v-58.85Z" fill="#f6f9fd"/>
        <path d="M494.81,123.03l-18.7-28.68h17.08l11.22,18.33,11.35-18.33h16.08l-19.33,28.18,20.32,30.67h-17.21l-12.47-20.32-12.84,20.32h-16.08l20.57-30.17Z" fill="#f6f9fd"/>
      </g>
      <g>
        <path d="M190.12,34.38c-1.84-1.03-3.27-2.52-4.29-4.45-1.02-1.93-1.53-4.16-1.53-6.68,0-2.53.53-4.77,1.58-6.73,1.05-1.96,2.5-3.5,4.34-4.6,1.84-1.1,3.92-1.66,6.23-1.66,3.65,0,6.51,1.13,8.58,3.39,2.07,2.26,3.1,5.36,3.1,9.29v1.74c0,.08-.07.15-.15.15h-18.41c-.09,0-.16.08-.15.17.2,2.06.91,3.7,2.14,4.91,1.26,1.25,2.96,1.87,5.1,1.87,1.96,0,3.49-.41,4.58-1.24,1.05-.8,1.86-1.83,2.42-3.1.03-.07.11-.11.19-.08l4.24,1.63c.08.03.12.13.08.21-.91,2-2.3,3.62-4.17,4.85-1.91,1.26-4.36,1.89-7.34,1.89-2.53,0-4.71-.52-6.55-1.55ZM201.04,16.1c-1.12-1.12-2.68-1.68-4.68-1.68-1.89,0-3.48.59-4.76,1.76-1.24,1.14-2,2.69-2.27,4.64-.01.09.06.17.15.17h13.24c.09,0,.16-.08.15-.16-.13-2.06-.74-3.64-1.83-4.73Z" fill="#f6f9fd"/>
        <path d="M211.61,10.68h4.8c.08,0,.15.07.15.15v3.54c0,.16.23.21.29.06.43-1.13,1.08-2.04,1.97-2.72,1.12-.86,2.79-1.29,5-1.29h.59c.08,0,.15.07.15.15v4.75c0,.08-.07.15-.15.15h-2.17c-2.18,0-3.67.56-4.47,1.68-.81,1.12-1.21,3-1.21,5.63v12.58c0,.08-.07.15-.15.15h-4.8c-.08,0-.15-.07-.15-.15V10.83c0-.08.07-.15.15-.15Z" fill="#f6f9fd"/>
        <path d="M237.05,5.87c.16-.51.47-.83.95-.97.47-.14,1.32-.21,2.55-.21h3.88c.08,0,.15-.07.15-.15V.15c0-.08-.07-.15-.15-.15h-6.03c-1.68.11-3,.44-3.95,1-.95.56-1.62,1.39-2.03,2.5-.4,1.1-.61,2.62-.61,4.55v2.48c0,.08-.07.15-.15.15h-4.01v4.37h4.01c.08,0,.15.07.15.15v20.17c0,.08.07.15.15.15h4.65c.08,0,.15-.07.15-.15V15.2c0-.08.07-.15.15-.15h4.8c.08,0,.15-.07.15-.15v-4.07c0-.08-.07-.15-.15-.15h-4.75c-.08,0-.15-.07-.15-.15v-2.06c0-1.23.08-2.1.24-2.6Z" fill="#f6f9fd"/>
        <path d="M248.78,34.3c-1.88-1.09-3.34-2.6-4.39-4.52-1.05-1.93-1.58-4.14-1.58-6.63s.53-4.76,1.6-6.71c1.07-1.95,2.54-3.46,4.42-4.55,1.88-1.09,4.03-1.63,6.45-1.63,2.38,0,4.52.54,6.42,1.63,1.89,1.09,3.37,2.6,4.42,4.55,1.05,1.95,1.58,4.18,1.58,6.71s-.54,4.61-1.6,6.58c-1.07,1.96-2.56,3.49-4.47,4.58-1.91,1.09-4.06,1.63-6.45,1.63-2.39,0-4.52-.54-6.39-1.63ZM260.54,29.36c1.3-1.47,1.95-3.49,1.95-6.05v-.21c0-2.63-.64-4.71-1.92-6.23-1.28-1.53-3.04-2.29-5.29-2.29-2.25,0-4.03.76-5.34,2.29-1.32,1.53-1.97,3.6-1.97,6.23v.21c0,2.56.64,4.58,1.92,6.05,1.28,1.47,3.04,2.21,5.29,2.21,2.28,0,4.07-.74,5.37-2.21Z" fill="#f6f9fd"/>
        <path d="M270.65,10.68h4.8c.08,0,.15.07.15.15v3.54c0,.16.23.21.29.06.43-1.13,1.08-2.04,1.97-2.72,1.12-.86,2.79-1.29,5-1.29h.59c.08,0,.15.07.15.15v4.75c0,.08-.07.15-.15.15h-2.17c-2.18,0-3.67.56-4.47,1.68-.81,1.12-1.21,3-1.21,5.63v12.58c0,.08-.07.15-.15.15h-4.8c-.08,0-.15-.07-.15-.15V10.83c0-.08.07-.15.15-.15Z" fill="#f6f9fd"/>
        <path d="M290.21,34.3c-1.84-1.09-3.26-2.6-4.26-4.55-1-1.95-1.5-4.18-1.5-6.71s.52-4.66,1.55-6.6c1.03-1.95,2.49-3.46,4.37-4.55,1.88-1.09,4.01-1.63,6.39-1.63,2.81,0,5.15.71,7.02,2.13,1.84,1.39,3.16,3.28,3.98,5.67.03.08-.02.17-.1.19l-4.6,1.48c-.08.03-.17-.02-.19-.1-.46-1.61-1.17-2.85-2.14-3.72s-2.36-1.34-4.08-1.34c-2.14,0-3.85.77-5.13,2.32-1.28,1.54-1.92,3.58-1.92,6.1v.21c0,2.53.61,4.56,1.84,6.1,1.23,1.54,2.91,2.32,5.05,2.32,1.93,0,3.4-.46,4.42-1.37.99-.89,1.73-2.2,2.22-3.95.02-.08.11-.13.19-.1l4.55,1.43c.08.03.13.12.1.2-.88,2.56-2.26,4.54-4.13,5.95-1.91,1.44-4.32,2.16-7.23,2.16-2.42,0-4.55-.54-6.39-1.63Z" fill="#f6f9fd"/>
        <path d="M315.88,34.38c-1.84-1.03-3.27-2.52-4.29-4.45-1.02-1.93-1.53-4.16-1.53-6.68,0-2.53.53-4.77,1.58-6.73,1.05-1.96,2.5-3.5,4.34-4.6,1.84-1.1,3.92-1.66,6.23-1.66,3.65,0,6.51,1.13,8.58,3.39,2.07,2.26,3.1,5.36,3.1,9.29v1.74c0,.08-.07.15-.15.15h-18.41c-.09,0-.16.08-.15.17.2,2.06.91,3.7,2.14,4.91,1.26,1.25,2.96,1.87,5.1,1.87,1.96,0,3.49-.41,4.58-1.24,1.05-.8,1.86-1.83,2.42-3.1.03-.07.11-.11.19-.08l4.24,1.63c.08.03.12.13.08.21-.91,2-2.3,3.62-4.17,4.85-1.91,1.26-4.36,1.89-7.34,1.89-2.53,0-4.71-.52-6.55-1.55ZM326.8,16.1c-1.12-1.12-2.68-1.68-4.68-1.68-1.89,0-3.48.59-4.76,1.76-1.24,1.14-2,2.69-2.27,4.64-.01.09.06.17.15.17h13.24c.09,0,.16-.08.15-.16-.13-2.06-.74-3.64-1.83-4.73Z" fill="#f6f9fd"/>
        <path d="M180.23,16.15c-.96-1.93-2.3-3.41-4-4.45-1.7-1.03-3.62-1.55-5.76-1.55-1.72,0-3.27.37-4.66,1.1-1.25.66-2.29,1.57-3.12,2.71-.09.12-.27.06-.27-.08v-3.05c0-.08-.07-.15-.15-.15h-4.7c-.08,0-.15.07-.15.15v34.32c0,.08.07.15.15.15h4.75c.08,0,.15-.07.15-.15v-8.96c0-.08.07-.15.15-.15h7.79c2.14,0,4.07-.53,5.79-1.6,1.72-1.07,3.06-2.6,4.02-4.58.96-1.98,1.45-4.27,1.45-6.87v-.05c0-2.6-.48-4.86-1.45-6.79ZM176.31,23.15c0,2.67-.65,4.75-1.95,6.26-1.3,1.51-3.02,2.26-5.16,2.26h0s-6.64,0-6.64,0c-.08,0-.15-.07-.15-.15v-11.15c.3-1.36.84-2.53,1.63-3.51,1.26-1.56,2.98-2.34,5.16-2.34s3.95.72,5.21,2.16c1.26,1.44,1.89,3.47,1.89,6.1v.37Z" fill="#f6f9fd"/>
      </g>
</svg>