<?xml version="1.0" encoding="UTF-8"?> <svg xmlns="http://www.w3.org/2000/svg" width="147" height="72" viewBox="0 0 147 72" fill="none"><g clip-path="url(#clip0_1598_8898)"><path d="M50.436 38.5858V34.7395H55.9557V38.351C55.9557 39.6646 56.4239 40.134 57.6895 40.134H66.575C67.8374 40.134 68.3086 39.6646 68.3086 38.351V34.4113C68.3086 32.9092 67.7007 32.4403 66.1569 32.1121L57.2715 30.1422C53.3369 29.2503 50.5284 27.8433 50.5284 23.3874V18.884C50.5284 14.4293 52.6337 12.3171 57.0775 12.3171H66.8553C71.298 12.3171 73.4044 14.4271 73.4044 18.884V22.4021H67.9324V19.1186C67.9324 17.805 67.4643 17.3356 66.1545 17.3356H57.9191C56.6091 17.3356 56.1409 17.805 56.1409 19.1186V22.59C56.1409 24.0904 56.7488 24.5598 58.3394 24.9348L67.1813 26.859C71.1577 27.7499 73.9178 29.1569 73.9178 33.6138V38.5858C73.9178 43.0406 71.8125 45.1528 67.3687 45.1528H56.9863C52.5414 45.1525 50.436 43.0425 50.436 38.5858Z" fill="url(#paint0_linear_1598_8898)"></path><path d="M79.9688 12.3145H85.5826V45.1521H79.9688V12.3145Z" fill="url(#paint1_linear_1598_8898)"></path><path d="M92.3833 12.3145H98.278L112.312 35.6745V12.3145H117.739V45.1521H112.219L97.8076 21.1402V45.1521H92.3833V12.3145Z" fill="url(#paint2_linear_1598_8898)"></path><path d="M123.422 38.5854V18.8836C123.422 14.4288 125.528 12.3167 129.972 12.3167H140.451C144.894 12.3167 147 14.4267 147 18.8836V23.6219H141.387V19.2116C141.387 17.9458 140.919 17.4731 139.653 17.4731H130.811C129.503 17.4731 129.035 17.9425 129.035 19.2116V38.2572C129.035 39.523 129.503 39.9957 130.811 39.9957H139.653C140.917 39.9957 141.387 39.5262 141.387 38.2572V33.848H147V38.5851C147 42.9943 144.895 45.152 140.451 45.152H129.972C125.528 45.152 123.422 42.9943 123.422 38.5854Z" fill="url(#paint3_linear_1598_8898)"></path></g><path d="M40.8594 45.1141L0.0054472 71.9997L0 59.7169L40.8412 32.8627L40.8594 45.1141Z" fill="url(#paint4_linear_1598_8898)"></path><path d="M40.8597 45.0958L19.4873 32.329L29.3631 26.1133L40.8599 32.8812L40.8597 45.0958Z" fill="#27AAE1"></path><path d="M0 26.8867L40.854 0L40.8594 12.2831L0.0185205 39.1373L0 26.8867Z" fill="url(#paint5_linear_1598_8898)"></path><path d="M0 26.9042L21.3724 39.6729L11.4413 45.9815L0 39.1199V26.9042Z" fill="#2B3990"></path><defs><linearGradient id="paint0_linear_1598_8898" x1="62.1769" y1="69.5825" x2="62.1769" y2="2.17093" gradientUnits="userSpaceOnUse"><stop stop-color="#2B3990"></stop><stop offset="1" stop-color="#1C75BC"></stop></linearGradient><linearGradient id="paint1_linear_1598_8898" x1="82.7757" y1="69.5832" x2="82.7757" y2="2.16773" gradientUnits="userSpaceOnUse"><stop stop-color="#2B3990"></stop><stop offset="1" stop-color="#1C75BC"></stop></linearGradient><linearGradient id="paint2_linear_1598_8898" x1="105.061" y1="69.5832" x2="105.061" y2="2.16773" gradientUnits="userSpaceOnUse"><stop stop-color="#2B3990"></stop><stop offset="1" stop-color="#1C75BC"></stop></linearGradient><linearGradient id="paint3_linear_1598_8898" x1="135.211" y1="69.5815" x2="135.211" y2="2.17058" gradientUnits="userSpaceOnUse"><stop stop-color="#2B3990"></stop><stop offset="1" stop-color="#1C75BC"></stop></linearGradient><linearGradient id="paint4_linear_1598_8898" x1="27.335" y1="53.2139" x2="11.2604" y2="26.0983" gradientUnits="userSpaceOnUse"><stop stop-color="#1C75BC"></stop><stop offset="1" stop-color="#27AAE1"></stop></linearGradient><linearGradient id="paint5_linear_1598_8898" x1="73.1384" y1="82.1884" x2="57.0636" y2="55.0727" gradientUnits="userSpaceOnUse"><stop stop-color="#2B3990"></stop><stop offset="1" stop-color="#1C75BC"></stop></linearGradient><clipPath id="clip0_1598_8898"><rect width="105.75" height="33" fill="white" transform="translate(41.25 12)"></rect></clipPath></defs></svg> 